<svg width="1919" height="1095" viewBox="0 0 1919 1095" fill="none" xmlns="http://www.w3.org/2000/svg">
<path fill-rule="evenodd" clip-rule="evenodd" d="M-1 0V1095C-1 1095 1554.61 917.363 1640.25 908.094C1725.89 898.825 1836.95 898.825 1851.22 706.903L1919 190.599V0H-1Z" fill="url(#paint0_linear)"/>
<mask id="mask0" mask-type="alpha" maskUnits="userSpaceOnUse" x="-1" y="0" width="1920" height="1095">
<path fill-rule="evenodd" clip-rule="evenodd" d="M-1 0V1095C-1 1095 1554.61 917.363 1640.25 908.094C1725.89 898.825 1836.95 898.825 1851.22 706.903L1919 190.599V0H-1Z" fill="white"/>
</mask>
<g mask="url(#mask0)">
<g opacity="0.5">
<path d="M1281 435.507L1424 465L1417.54 265L1281 435.507Z" fill="#282C39" stroke="#282C39" stroke-width="1.51"/>
<path d="M1418 264.093L1167 40L1281.43 434L1418 264.093Z" fill="#282C39" stroke="#282C39" stroke-width="1.51"/>
<path d="M1421.42 465L1771 276.06L1415 265L1421.42 465Z" fill="#252934" stroke="#252934" stroke-width="1.51"/>
<path d="M1418 264L1276.81 -211L1167 39.8221L1418 264Z" fill="#262A37" stroke="#262A37" stroke-width="1.51"/>
<path d="M1288 1087L1596 897.199L1421.31 466L1288 1087Z" fill="#1F222B" stroke="#1F222B" stroke-width="1.51"/>
<path d="M1165.36 40L917 434H1279L1165.36 40Z" fill="#292D3A" stroke="#292D3A" stroke-width="1.51"/>
<path d="M1421 466L1843 414.371L1772.05 277L1421 466Z" fill="#232731" stroke="#232731" stroke-width="1.51"/>
<path d="M1963 -114L1753 17.2235L1772.26 276L1963 -114Z" fill="#1E2029" stroke="#1E2029" stroke-width="1.51"/>
<path d="M1771 276L1751.73 17L1415 264.979L1771 276Z" fill="#222530" stroke="#222530" stroke-width="1.51"/>
<path d="M1165 40L931.642 45.5105L917 434L1165 40Z" fill="#272B37" stroke="#272B37" stroke-width="1.51"/>
<path d="M1274 -211L931 46L1164.86 40.4731L1274 -211Z" fill="#262936" stroke="#262936" stroke-width="1.51"/>
<path d="M1421 465.479L1798.77 767L1843 414L1421 465.479Z" fill="#20232C" stroke="#20232C" stroke-width="1.51"/>
<path d="M1290.23 1085L1424 464.462L1281 435L1290.23 1085Z" fill="#242732" stroke="#242732" stroke-width="1.51"/>
<path d="M1755 15.9342L1276 -211L1416.94 264L1755 15.9342Z" fill="#242631" stroke="#242631" stroke-width="1.51"/>
<path d="M1596.17 895L1799 766.667L1421 466L1596.17 895Z" fill="#1F212A" stroke="#1F212A" stroke-width="1.51"/>
<path d="M917 435L1289 1085L1279.81 435H917Z" fill="#252934" stroke="#252934" stroke-width="1.51"/>
<path d="M915.927 435L723 963.47L1288 1085L915.927 435Z" fill="#20232D" stroke="#20232D" stroke-width="1.51"/>
<path d="M594 115L671.28 604L916 435.475L594 115Z" fill="#272A37" stroke="#272A37" stroke-width="1.51"/>
<path d="M1275 -211L773 -174.154L931.139 46L1275 -211Z" fill="#242834" stroke="#242834" stroke-width="1.51"/>
<path d="M931 46L594 114.972L916.268 435L931 46Z" fill="#252935" stroke="#252935" stroke-width="1.51"/>
<path d="M772.628 -173L594 116L931 46.9713L772.628 -173Z" fill="#242732" stroke="#242732" stroke-width="1.51"/>
<path d="M1799 767L2146 631.867L1843.06 414L1799 767Z" fill="#1F222A" stroke="#1F222A" stroke-width="1.51"/>
<path d="M2129.48 907L2146 632L1799 767.201L2129.48 907Z" fill="#1F2229" stroke="#1F2229" stroke-width="1.51"/>
<path d="M671 603.016L722.368 962L915 435L671 603.016Z" fill="#22252F" stroke="#22252F" stroke-width="1.51"/>
<path d="M621 983L724 962.811L672.036 604L621 983Z" fill="#1D2029" stroke="#1D2029" stroke-width="1.51"/>
<path d="M2083.11 1175L2130 906.018L1799 766L2083.11 1175Z" fill="#1D2025" stroke="#1D2025" stroke-width="1.51"/>
<path d="M350 398L623.375 982L674 602.767L350 398Z" fill="#21242E" stroke="#21242E" stroke-width="1.51"/>
<path d="M89 231.182L348.953 399L596 115L89 231.182Z" fill="#282C38" stroke="#282C38" stroke-width="1.51"/>
<path d="M596.682 115L350 398.638L674 604L596.682 115Z" fill="#272A37" stroke="#272A37" stroke-width="1.51"/>
<path d="M772 -173.456L417 -226L593.58 116L772 -173.456Z" fill="#222530" stroke="#222530" stroke-width="1.51"/>
<path d="M9 926L511.649 1115L621 983.801L9 926Z" fill="#22252E" stroke="#22252E" stroke-width="1.51"/>
<path d="M621.687 983.267L512 1115L724 963L621.687 983.267Z" fill="#20222B" stroke="#20222B" stroke-width="1.51"/>
<path d="M417.64 -226L267 -131.051L594 116L417.64 -226Z" fill="#242733" stroke="#242733" stroke-width="1.51"/>
<path d="M267.833 -131L89 231L596 115.234L267.833 -131Z" fill="#272A37" stroke="#272A37" stroke-width="1.51"/>
<path d="M348.081 398L9 924.151L621 982L348.081 398Z" fill="#22252F" stroke="#22252F" stroke-width="1.51"/>
<path d="M88.6911 231L9 924L347 398.054L88.6911 231Z" fill="#2A2D39" stroke="#2A2D39" stroke-width="1.51"/>
</g>
</g>
<defs>
<linearGradient id="paint0_linear" x1="1812.04" y1="0" x2="1812.04" y2="973.001" gradientUnits="userSpaceOnUse">
<stop stop-color="#20232D"/>
<stop offset="1" stop-color="#151720"/>
</linearGradient>
</defs>
</svg>
