<?xml version="1.0" encoding="iso-8859-1"?>
<?xml-stylesheet type="text/css" href="../src/sass/style.css" ?>
<svg class="media-svg" width="20" height="20" viewBox="0 0 20 20" fill="none" xmlns="http://www.w3.org/2000/svg">
<g opacity="0.9">
<path fill-rule="evenodd" clip-rule="evenodd" d="M9.97671 0C15.4639 0 19.9534 4.48952 19.9534 9.97671C19.9534 15.4639 15.4639 19.9534 9.97671 19.9534C4.48952 19.9534 0 15.4638 0 9.97671C0 4.48959 4.48952 0 9.97671 0ZM15.0274 8.29297V9.41537H16.1497V10.5378H15.0274V11.6602H13.905V10.5378H12.7826V9.41537H13.905V8.29297H15.0274ZM4.98832 7.17075C3.42948 8.66718 3.42948 11.2861 4.92599 12.7826C6.42249 14.2791 9.0414 14.2791 10.5378 12.8451C11.0991 12.2839 11.4109 11.4733 11.4732 10.6627V9.78972L11.4109 9.47794H7.85667V10.725H10.1014V10.8497C10.0391 11.2238 9.78962 11.598 9.54023 11.8474C8.66729 12.8451 6.98373 12.8451 6.04838 11.8474C5.05071 10.8497 5.11304 9.16616 6.04838 8.23082C6.85893 7.4202 8.10606 7.29554 8.979 7.85671L9.35311 8.10609L10.3508 7.10842L9.72722 6.67191L9.16606 6.36013C7.73188 5.79897 6.11071 6.04835 4.98832 7.17075Z" fill="white"/>
</g>
</svg>
