<svg width="135" height="40" viewBox="0 0 135 40" fill="none" xmlns="http://www.w3.org/2000/svg">
<mask id="mask0" mask-type="alpha" maskUnits="userSpaceOnUse" x="0" y="0" width="135" height="40">
<path fill-rule="evenodd" clip-rule="evenodd" d="M0 0H135V39.9999H0V0Z" fill="white"/>
</mask>
<g mask="url(#mask0)">
<path fill-rule="evenodd" clip-rule="evenodd" d="M130 40H4.99988C2.24988 40 -0.00012207 37.75 -0.00012207 35V5C-0.00012207 2.25 2.24988 0 4.99988 0H130C132.75 0 135 2.25 135 5V35C135 37.75 132.75 40 130 40Z" fill="black"/>
</g>
<path fill-rule="evenodd" clip-rule="evenodd" d="M47.4184 10.2432C47.4184 11.0812 47.1704 11.7482 46.6734 12.2462C46.1084 12.8382 45.3734 13.1342 44.4694 13.1342C43.6034 13.1342 42.8664 12.8342 42.2614 12.2332C41.6544 11.6332 41.3524 10.8882 41.3524 10.0002C41.3524 9.11121 41.6544 8.36721 42.2614 7.76621C42.8664 7.16621 43.6034 6.86621 44.4694 6.86621C44.8984 6.86621 45.3104 6.95021 45.7004 7.11721C46.0914 7.28521 46.4044 7.50821 46.6394 7.78721L46.1114 8.31521C45.7144 7.84121 45.1674 7.60321 44.4694 7.60321C43.8374 7.60321 43.2914 7.82521 42.8304 8.26921C42.3694 8.71421 42.1394 9.29021 42.1394 10.0002C42.1394 10.7092 42.3694 11.2862 42.8304 11.7302C43.2914 12.1752 43.8374 12.3962 44.4694 12.3962C45.1394 12.3962 45.6974 12.1732 46.1454 11.7262C46.4354 11.4352 46.6034 11.0312 46.6474 10.5112H44.4694V9.79021H47.3764C47.4044 9.94721 47.4184 10.0972 47.4184 10.2432Z" fill="white"/>
<path fill-rule="evenodd" clip-rule="evenodd" d="M47.4184 10.2432C47.4184 11.0812 47.1704 11.7482 46.6734 12.2462C46.1084 12.8382 45.3734 13.1342 44.4694 13.1342C43.6034 13.1342 42.8664 12.8342 42.2614 12.2332C41.6544 11.6332 41.3524 10.8882 41.3524 10.0002C41.3524 9.11121 41.6544 8.36721 42.2614 7.76621C42.8664 7.16621 43.6034 6.86621 44.4694 6.86621C44.8984 6.86621 45.3104 6.95021 45.7004 7.11721C46.0914 7.28521 46.4044 7.50821 46.6394 7.78721L46.1114 8.31521C45.7144 7.84121 45.1674 7.60321 44.4694 7.60321C43.8374 7.60321 43.2914 7.82521 42.8304 8.26921C42.3694 8.71421 42.1394 9.29021 42.1394 10.0002C42.1394 10.7092 42.3694 11.2862 42.8304 11.7302C43.2914 12.1752 43.8374 12.3962 44.4694 12.3962C45.1394 12.3962 45.6974 12.1732 46.1454 11.7262C46.4354 11.4352 46.6034 11.0312 46.6474 10.5112H44.4694V9.79021H47.3764C47.4044 9.94721 47.4184 10.0972 47.4184 10.2432Z" stroke="white" stroke-width="0.2"/>
<path fill-rule="evenodd" clip-rule="evenodd" d="M52.0277 7.737H49.2957V9.639H51.7587V10.36H49.2957V12.262H52.0277V13H48.5247V7H52.0277V7.737Z" fill="white"/>
<path fill-rule="evenodd" clip-rule="evenodd" d="M52.0277 7.737H49.2957V9.639H51.7587V10.36H49.2957V12.262H52.0277V13H48.5247V7H52.0277V7.737Z" stroke="white" stroke-width="0.2"/>
<path fill-rule="evenodd" clip-rule="evenodd" d="M55.2787 13H54.5077V7.737H52.8317V7H56.9547V7.737H55.2787V13Z" fill="white"/>
<path fill-rule="evenodd" clip-rule="evenodd" d="M55.2787 13H54.5077V7.737H52.8317V7H56.9547V7.737H55.2787V13Z" stroke="white" stroke-width="0.2"/>
<path fill-rule="evenodd" clip-rule="evenodd" d="M59.938 13H60.709V7H59.938V13Z" fill="white"/>
<path fill-rule="evenodd" clip-rule="evenodd" d="M59.938 13H60.709V7H59.938V13Z" stroke="white" stroke-width="0.2"/>
<path fill-rule="evenodd" clip-rule="evenodd" d="M64.1283 13H63.3573V7.737H61.6813V7H65.8043V7.737H64.1283V13Z" fill="white"/>
<path fill-rule="evenodd" clip-rule="evenodd" d="M64.1283 13H63.3573V7.737H61.6813V7H65.8043V7.737H64.1283V13Z" stroke="white" stroke-width="0.2"/>
<path fill-rule="evenodd" clip-rule="evenodd" d="M69.7792 11.7222C70.2232 12.1722 70.7662 12.3962 71.4092 12.3962C72.0512 12.3962 72.5952 12.1722 73.0392 11.7222C73.4832 11.2722 73.7062 10.6982 73.7062 10.0002C73.7062 9.30221 73.4832 8.72721 73.0392 8.27821C72.5952 7.82821 72.0512 7.60321 71.4092 7.60321C70.7662 7.60321 70.2232 7.82821 69.7792 8.27821C69.3362 8.72721 69.1132 9.30221 69.1132 10.0002C69.1132 10.6982 69.3362 11.2722 69.7792 11.7222ZM73.6092 12.2242C73.0192 12.8312 72.2862 13.1342 71.4092 13.1342C70.5322 13.1342 69.7992 12.8312 69.2102 12.2242C68.6202 11.6182 68.3262 10.8772 68.3262 10.0002C68.3262 9.12321 68.6202 8.38121 69.2102 7.77521C69.7992 7.16921 70.5322 6.86621 71.4092 6.86621C72.2812 6.86621 73.0122 7.17021 73.6052 7.77921C74.1972 8.38821 74.4932 9.12821 74.4932 10.0002C74.4932 10.8772 74.1982 11.6182 73.6092 12.2242Z" fill="white"/>
<path d="M69.7792 11.7222L69.7079 11.7924L69.708 11.7924L69.7792 11.7222ZM73.0392 8.27821L72.968 8.34845L72.9681 8.34852L73.0392 8.27821ZM69.7792 8.27821L69.708 8.20798L69.708 8.20798L69.7792 8.27821ZM73.6092 12.2242L73.6809 12.2939L73.6809 12.2939L73.6092 12.2242ZM69.2102 12.2242L69.2819 12.1546L69.2818 12.1545L69.2102 12.2242ZM69.2102 7.77521L69.2818 7.84497L69.2819 7.84491L69.2102 7.77521ZM73.6052 7.77921L73.6769 7.70951L73.6768 7.70945L73.6052 7.77921ZM69.708 11.7924C70.1712 12.2619 70.74 12.4962 71.4092 12.4962V12.2962C70.7923 12.2962 70.2751 12.0825 69.8504 11.652L69.708 11.7924ZM71.4092 12.4962C72.0773 12.4962 72.6471 12.2619 73.1104 11.7924L72.968 11.652C72.5432 12.0825 72.025 12.2962 71.4092 12.2962V12.4962ZM73.1104 11.7924C73.5748 11.3218 73.8062 10.7216 73.8062 10.0002H73.6062C73.6062 10.6748 73.3916 11.2226 72.968 11.652L73.1104 11.7924ZM73.8062 10.0002C73.8062 9.27887 73.5748 8.67764 73.1103 8.2079L72.9681 8.34852C73.3916 8.77678 73.6062 9.32555 73.6062 10.0002H73.8062ZM73.1104 8.20798C72.6472 7.73857 72.0774 7.50321 71.4092 7.50321V7.70321C72.0249 7.70321 72.5431 7.91785 72.968 8.34845L73.1104 8.20798ZM71.4092 7.50321C70.7399 7.50321 70.1711 7.73858 69.708 8.20798L69.8504 8.34845C70.2752 7.91784 70.7924 7.70321 71.4092 7.70321V7.50321ZM69.708 8.20798C69.2445 8.6777 69.0132 9.27888 69.0132 10.0002H69.2132C69.2132 9.32554 69.4278 8.77672 69.8504 8.34844L69.708 8.20798ZM69.0132 10.0002C69.0132 10.7216 69.2446 11.3217 69.7079 11.7924L69.8504 11.6521C69.4278 11.2227 69.2132 10.6748 69.2132 10.0002H69.0132ZM73.5375 12.1545C72.9671 12.7414 72.2603 13.0342 71.4092 13.0342V13.2342C72.3121 13.2342 73.0713 12.9211 73.6809 12.2939L73.5375 12.1545ZM71.4092 13.0342C70.5581 13.0342 69.8513 12.7413 69.2819 12.1546L69.1384 12.2938C69.747 12.9211 70.5063 13.2342 71.4092 13.2342V13.0342ZM69.2818 12.1545C68.7108 11.5679 68.4262 10.8523 68.4262 10.0002H68.2262C68.2262 10.9021 68.5296 11.6685 69.1385 12.294L69.2818 12.1545ZM68.4262 10.0002C68.4262 9.1481 68.7108 8.43148 69.2818 7.84497L69.1385 7.70545C68.5295 8.33095 68.2262 9.09832 68.2262 10.0002H68.4262ZM69.2819 7.84491C69.8513 7.25909 70.558 6.96621 71.4092 6.96621V6.76621C70.5063 6.76621 69.7471 7.07934 69.1385 7.70551L69.2819 7.84491ZM71.4092 6.96621C72.255 6.96621 72.9599 7.25985 73.5335 7.84897L73.6768 7.70945C73.0645 7.08057 72.3074 6.76621 71.4092 6.76621V6.96621ZM73.5335 7.84891C74.1068 8.43871 74.3932 9.15348 74.3932 10.0002H74.5932C74.5932 9.10294 74.2875 8.33771 73.6769 7.70951L73.5335 7.84891ZM74.3932 10.0002C74.3932 10.8522 74.1076 11.5679 73.5375 12.1545L73.6809 12.2939C74.2887 11.6685 74.5932 10.9022 74.5932 10.0002H74.3932Z" fill="white"/>
<path fill-rule="evenodd" clip-rule="evenodd" d="M75.5751 13V7H76.5131L79.4291 11.667H79.4631L79.4291 10.511V7H80.2011V13H79.3961L76.3461 8.106H76.3121L76.3461 9.263V13H75.5751Z" fill="white"/>
<path fill-rule="evenodd" clip-rule="evenodd" d="M75.5751 13V7H76.5131L79.4291 11.667H79.4631L79.4291 10.511V7H80.2011V13H79.3961L76.3461 8.106H76.3121L76.3461 9.263V13H75.5751Z" stroke="white" stroke-width="0.2"/>
<path fill-rule="evenodd" clip-rule="evenodd" d="M106.936 29.9999H108.801V17.4989H106.936V29.9999ZM123.743 22.0019L121.604 27.4219H121.54L119.32 22.0019H117.31L120.64 29.5769L118.741 33.7909H120.687L125.818 22.0019H123.743ZM113.16 28.5799C112.55 28.5799 111.697 28.2739 111.697 27.5179C111.697 26.5539 112.759 26.1829 113.676 26.1829C114.495 26.1829 114.882 26.3609 115.38 26.6009C115.235 27.7599 114.238 28.5799 113.16 28.5799ZM113.386 21.7279C112.035 21.7279 110.636 22.3239 110.057 23.6419L111.713 24.3339C112.067 23.6419 112.726 23.4169 113.418 23.4169C114.383 23.4169 115.364 23.9959 115.38 25.0249V25.1539C115.042 24.9609 114.318 24.6719 113.434 24.6719C111.648 24.6719 109.831 25.6529 109.831 27.4859C109.831 29.1589 111.295 30.2369 112.935 30.2369C114.189 30.2369 114.882 29.6739 115.315 29.0139H115.38V29.9789H117.182V25.1859C117.182 22.9669 115.524 21.7279 113.386 21.7279ZM101.854 23.5239H99.2V19.2389H101.854C103.249 19.2389 104.041 20.3929 104.041 21.3809C104.041 22.3499 103.249 23.5239 101.854 23.5239ZM101.806 17.4979H97.335V29.9999H99.2V25.2639H101.806C103.874 25.2639 105.907 23.7659 105.907 21.3809C105.907 18.9959 103.874 17.4979 101.806 17.4979ZM77.425 28.5819C76.136 28.5819 75.057 27.5029 75.057 26.0209C75.057 24.5219 76.136 23.4269 77.425 23.4269C78.697 23.4269 79.696 24.5219 79.696 26.0209C79.696 27.5029 78.697 28.5819 77.425 28.5819ZM79.567 22.7019H79.503C79.084 22.2029 78.278 21.7509 77.264 21.7509C75.137 21.7509 73.187 23.6199 73.187 26.0209C73.187 28.4049 75.137 30.2579 77.264 30.2579C78.278 30.2579 79.084 29.8069 79.503 29.2909H79.567V29.9029C79.567 31.5309 78.697 32.3999 77.296 32.3999C76.152 32.3999 75.443 31.5789 75.153 30.8859L73.526 31.5629C73.993 32.6899 75.233 34.0759 77.296 34.0759C79.487 34.0759 81.34 32.7869 81.34 29.6449V22.0089H79.567V22.7019ZM82.629 29.9999H84.497V17.4989H82.629V29.9999ZM87.252 25.8759C87.204 24.2319 88.525 23.3949 89.475 23.3949C90.217 23.3949 90.845 23.7659 91.055 24.2969L87.252 25.8759ZM93.052 24.4579C92.697 23.5079 91.618 21.7509 89.411 21.7509C87.22 21.7509 85.399 23.4749 85.399 26.0049C85.399 28.3889 87.204 30.2579 89.62 30.2579C91.569 30.2579 92.697 29.0659 93.165 28.3729L91.715 27.4059C91.231 28.1149 90.571 28.5819 89.62 28.5819C88.67 28.5819 87.993 28.1469 87.559 27.2929L93.245 24.9409L93.052 24.4579ZM47.744 23.0569V24.8609H52.061C51.933 25.8759 51.594 26.6169 51.079 27.1319C50.45 27.7609 49.467 28.4539 47.744 28.4539C45.085 28.4539 43.007 26.3109 43.007 23.6529C43.007 20.9949 45.085 18.8509 47.744 18.8509C49.178 18.8509 50.225 19.4149 50.998 20.1409L52.271 18.8679C51.191 17.8369 49.758 17.0469 47.744 17.0469C44.102 17.0469 41.041 20.0119 41.041 23.6529C41.041 27.2929 44.102 30.2579 47.744 30.2579C49.709 30.2579 51.191 29.6129 52.351 28.4049C53.543 27.2129 53.914 25.5369 53.914 24.1839C53.914 23.7659 53.882 23.3789 53.817 23.0569H47.744ZM58.822 28.5819C57.534 28.5819 56.422 27.5189 56.422 26.0049C56.422 24.4739 57.534 23.4269 58.822 23.4269C60.111 23.4269 61.223 24.4739 61.223 26.0049C61.223 27.5189 60.111 28.5819 58.822 28.5819ZM58.822 21.7509C56.47 21.7509 54.553 23.5399 54.553 26.0049C54.553 28.4539 56.47 30.2579 58.822 30.2579C61.175 30.2579 63.092 28.4539 63.092 26.0049C63.092 23.5399 61.175 21.7509 58.822 21.7509ZM68.136 28.5819C66.847 28.5819 65.735 27.5189 65.735 26.0049C65.735 24.4739 66.847 23.4269 68.136 23.4269C69.425 23.4269 70.536 24.4739 70.536 26.0049C70.536 27.5189 69.425 28.5819 68.136 28.5819ZM68.136 21.7509C65.784 21.7509 63.867 23.5399 63.867 26.0049C63.867 28.4539 65.784 30.2579 68.136 30.2579C70.488 30.2579 72.405 28.4539 72.405 26.0049C72.405 23.5399 70.488 21.7509 68.136 21.7509Z" fill="white"/>
<mask id="mask1" mask-type="alpha" maskUnits="userSpaceOnUse" x="9" y="7" width="14" height="26">
<path fill-rule="evenodd" clip-rule="evenodd" d="M10.436 7.53784C10.145 7.84584 9.97302 8.32384 9.97302 8.94284V31.0588C9.97302 31.6788 10.145 32.1558 10.436 32.4628L10.509 32.5358L22.899 20.1468V20.0008V19.8548L10.509 7.46484L10.436 7.53784Z" fill="white"/>
</mask>
<g mask="url(#mask1)">
<path fill-rule="evenodd" clip-rule="evenodd" d="M10.436 7.53784C10.145 7.84584 9.97302 8.32384 9.97302 8.94284V31.0588C9.97302 31.6788 10.145 32.1558 10.436 32.4628L10.509 32.5358L22.899 20.1468V20.0008V19.8548L10.509 7.46484L10.436 7.53784Z" fill="#00D2FF"/>
</g>
<mask id="mask2" mask-type="alpha" maskUnits="userSpaceOnUse" x="22" y="15" width="12" height="10">
<path fill-rule="evenodd" clip-rule="evenodd" d="M22.899 19.8551V20.0011V20.1471L27.028 24.2781L27.122 24.2261L32.015 21.4461C33.412 20.6511 33.412 19.3511 32.015 18.5571L27.122 15.7771L27.029 15.7241L22.899 19.8551Z" fill="white"/>
</mask>
<g mask="url(#mask2)">
<path fill-rule="evenodd" clip-rule="evenodd" d="M22.899 19.8551V20.0011V20.1471L27.028 24.2781L27.122 24.2261L32.015 21.4461C33.412 20.6511 33.412 19.3511 32.015 18.5571L27.122 15.7771L27.029 15.7241L22.899 19.8551Z" fill="#FFC802"/>
</g>
<mask id="mask3" mask-type="alpha" maskUnits="userSpaceOnUse" x="10" y="20" width="18" height="13">
<path fill-rule="evenodd" clip-rule="evenodd" d="M10.436 32.463C10.896 32.951 11.657 33.012 12.514 32.525L27.122 24.225L22.899 20.001L10.436 32.463Z" fill="white"/>
</mask>
<g mask="url(#mask3)">
<path fill-rule="evenodd" clip-rule="evenodd" d="M10.436 32.463C10.896 32.951 11.657 33.012 12.514 32.525L27.122 24.225L22.899 20.001L10.436 32.463Z" fill="url(#paint0_linear)"/>
</g>
<mask id="mask4" mask-type="alpha" maskUnits="userSpaceOnUse" x="10" y="7" width="18" height="14">
<path fill-rule="evenodd" clip-rule="evenodd" d="M10.436 7.53814L22.899 20.0011L27.122 15.7771L12.514 7.47714C12.112 7.24814 11.731 7.14014 11.393 7.14014C11.009 7.14014 10.68 7.27914 10.436 7.53814Z" fill="white"/>
</mask>
<g mask="url(#mask4)">
<path fill-rule="evenodd" clip-rule="evenodd" d="M10.436 7.53814L22.899 20.0011L27.122 15.7771L12.514 7.47714C12.112 7.24814 11.731 7.14014 11.393 7.14014C11.009 7.14014 10.68 7.27914 10.436 7.53814Z" fill="#00F076"/>
</g>
<path fill-rule="evenodd" clip-rule="evenodd" d="M27.0287 24.1318L12.5137 32.3798C11.7017 32.8398 10.9757 32.8098 10.5097 32.3898L10.4357 32.4648L10.5087 32.5368L10.5097 32.5358C10.9757 32.9558 11.7017 32.9868 12.5137 32.5258L27.1217 24.2248L27.0287 24.1318Z" fill="black"/>
<path fill-rule="evenodd" clip-rule="evenodd" d="M10.4354 32.3186C10.1444 32.0106 9.97241 31.5326 9.97241 30.9136V31.0596C9.97241 31.6786 10.1444 32.1566 10.4354 32.4646L10.5094 32.3906L10.4354 32.3186Z" fill="black"/>
<path fill-rule="evenodd" clip-rule="evenodd" d="M32.0146 21.299L27.0286 24.132L27.1216 24.225L32.0146 21.445C32.7136 21.048 33.0626 20.525 33.0626 20.002C33.0036 20.475 32.6486 20.939 32.0146 21.299Z" fill="black"/>
<path fill-rule="evenodd" clip-rule="evenodd" d="M12.5137 7.62312L32.0147 18.7031C32.6487 19.0631 33.0037 19.5271 33.0627 20.0011C33.0637 19.4781 32.7137 18.9541 32.0147 18.5571L12.5137 7.47712C11.1157 6.68312 9.97266 7.34312 9.97266 8.94312V9.08912C9.97266 7.48912 11.1157 6.82912 12.5137 7.62312Z" fill="white"/>
<defs>
<linearGradient id="paint0_linear" x1="10.0624" y1="13.526" x2="-5.86576" y2="40.3413" gradientUnits="userSpaceOnUse">
<stop stop-color="#FF3A44"/>
<stop offset="1" stop-color="#C31162"/>
</linearGradient>
</defs>
</svg>
