<?xml version="1.0" encoding="iso-8859-1"?>
<?xml-stylesheet type="text/css" href="../../sass/style.css" ?>
<svg class="media-svg" width="20" height="20" viewBox="0 0 20 20" fill="none" xmlns="http://www.w3.org/2000/svg">
<g opacity="0.9">
<path fill-rule="evenodd" clip-rule="evenodd" d="M9.99857 19.9971C15.5206 19.9971 19.9971 15.5206 19.9971 9.99857C19.9971 4.47651 15.5206 0 9.99857 0C4.47651 0 0 4.47651 0 9.99857C0 15.5206 4.47651 19.9971 9.99857 19.9971ZM15.2309 8.06931C15.2309 7.23112 14.5518 6.55176 13.7141 6.55176H6.598C5.76045 6.55176 5.08154 7.23129 5.08154 8.06931V12.1387C5.08154 12.9769 5.76057 13.6562 6.598 13.6562H13.714C14.5519 13.6562 15.2307 12.9767 15.2307 12.1387V8.06931H15.2309ZM9.14093 7.99854V11.8206L12.0395 9.90967L9.14093 7.99854Z" fill="white"/>
</g>
</svg>
